<?xml version="1.0" encoding="UTF-8"?>
<!--Generator: Apple Native CoreSVG 232.5-->
<!DOCTYPE svg
PUBLIC "-//W3C//DTD SVG 1.1//EN"
       "http://www.w3.org/Graphics/SVG/1.1/DTD/svg11.dtd">
<svg version="1.1" xmlns="http://www.w3.org/2000/svg" xmlns:xlink="http://www.w3.org/1999/xlink" width="254.395" height="254.59">
 <g>
  <rect height="254.59" opacity="0" width="254.395" x="0" y="0"/>
  <path d="M127.148 254.395C196.777 254.395 254.395 196.777 254.395 127.246C254.395 57.6172 196.68 0 127.051 0C57.5195 0 0 57.6172 0 127.246C0 196.777 57.6172 254.395 127.148 254.395Z" fill="#ffffff"/>
  <path d="M151.66 189.258C148.828 192.09 143.164 191.992 140.137 188.965L86.3281 137.793C80.2734 132.129 80.1758 122.461 86.3281 116.699L140.137 65.5273C143.457 62.3047 148.438 62.207 151.562 65.2344C154.883 68.3594 154.98 73.7305 151.66 76.7578L98.6328 127.148L151.66 177.637C154.883 180.762 154.98 186.035 151.66 189.258Z" fill="#000000"/>
 </g>
</svg>
