<?xml version="1.0" encoding="UTF-8"?>
<!--Generator: Apple Native CoreSVG 232.5-->
<!DOCTYPE svg
PUBLIC "-//W3C//DTD SVG 1.1//EN"
       "http://www.w3.org/Graphics/SVG/1.1/DTD/svg11.dtd">
<svg version="1.1" xmlns="http://www.w3.org/2000/svg" xmlns:xlink="http://www.w3.org/1999/xlink" width="254.395" height="254.59">
 <g>
  <rect height="254.59" opacity="0" width="254.395" x="0" y="0"/>
  <path d="M127.148 254.395C196.777 254.395 254.395 196.777 254.395 127.246C254.395 57.6172 196.68 0 127.051 0C57.5195 0 0 57.6172 0 127.246C0 196.777 57.6172 254.395 127.148 254.395Z" fill="#000000" fill-opacity="0.85"/>
  <path d="M84.7656 178.809C79.7852 178.809 75.7812 174.805 75.7812 169.727C75.7812 167.383 76.7578 165.137 78.5156 163.379L114.551 127.344L78.5156 91.3086C76.7578 89.5508 75.7812 87.4023 75.7812 84.9609C75.7812 79.9805 79.7852 76.1719 84.7656 76.1719C87.3047 76.1719 89.2578 77.0508 91.0156 78.8086L127.148 114.844L163.477 78.7109C165.43 76.7578 167.383 75.9766 169.824 75.9766C174.707 75.9766 178.711 79.8828 178.711 84.7656C178.711 87.3047 178.027 89.2578 176.074 91.2109L139.941 127.344L175.977 163.281C177.832 165.039 178.613 167.285 178.613 169.727C178.613 174.805 174.609 178.809 169.629 178.809C167.09 178.809 164.844 177.832 163.086 176.074L127.148 140.039L91.3086 176.074C89.5508 177.832 87.3047 178.809 84.7656 178.809Z" fill="#ffffff"/>
 </g>
</svg>
