<?xml version="1.0" encoding="UTF-8"?>
<!--Generator: Apple Native CoreSVG 232.5-->
<!DOCTYPE svg
PUBLIC "-//W3C//DTD SVG 1.1//EN"
       "http://www.w3.org/Graphics/SVG/1.1/DTD/svg11.dtd">
<svg version="1.1" xmlns="http://www.w3.org/2000/svg" xmlns:xlink="http://www.w3.org/1999/xlink" width="254.395" height="254.59">
 <g>
  <rect height="254.59" opacity="0" width="254.395" x="0" y="0"/>
  <path d="M127.148 254.395C196.777 254.395 254.395 196.777 254.395 127.246C254.395 57.6172 196.68 0 127.051 0C57.5195 0 0 57.6172 0 127.246C0 196.777 57.6172 254.395 127.148 254.395Z" fill="#ffffff"/>
  <path d="M104.297 199.023C99.6094 199.023 96.0938 195.605 96.0938 191.016C96.0938 186.621 99.6094 183.105 104.297 183.105L121.777 183.105L121.777 119.336L106.152 119.336C101.562 119.336 97.9492 115.918 97.9492 111.328C97.9492 106.934 101.562 103.418 106.152 103.418L130.762 103.418C136.426 103.418 139.453 107.52 139.453 113.379L139.453 183.105L156.934 183.105C161.621 183.105 165.234 186.621 165.234 191.016C165.234 195.605 161.621 199.023 156.934 199.023ZM126.27 80.7617C117.773 80.7617 111.035 73.9258 111.035 65.4297C111.035 56.9336 117.773 50.0977 126.27 50.0977C134.766 50.0977 141.406 56.9336 141.406 65.4297C141.406 73.9258 134.766 80.7617 126.27 80.7617Z" fill="#1e1e1e"/>
 </g>
</svg>
