<?xml version="1.0" encoding="UTF-8"?>
<!--Generator: Apple Native CoreSVG 232.5-->
<!DOCTYPE svg
PUBLIC "-//W3C//DTD SVG 1.1//EN"
       "http://www.w3.org/Graphics/SVG/1.1/DTD/svg11.dtd">
<svg version="1.1" xmlns="http://www.w3.org/2000/svg" xmlns:xlink="http://www.w3.org/1999/xlink" width="254.395" height="254.59">
 <g>
  <rect height="254.59" opacity="0" width="254.395" x="0" y="0"/>
  <path d="M127.148 254.59C196.777 254.59 254.395 196.973 254.395 127.344C254.395 57.8125 196.68 0.195312 127.051 0.195312C57.5195 0.195312 0 57.8125 0 127.344C0 196.973 57.6172 254.59 127.148 254.59Z" fill="#ffffff" />
  <path d="M70.3125 133.301C70.3125 101.855 95.8984 77.3438 125.195 77.3438C127.051 77.3438 129.102 77.5391 130.664 77.7344L119.043 65.918C117.871 64.5508 116.992 62.5977 116.992 60.6445C116.992 56.543 120.117 53.3203 124.316 53.3203C126.367 53.3203 128.32 54.2969 129.688 55.7617L154.98 81.6406C157.715 84.5703 157.812 89.6484 154.98 92.4805L129.297 118.359C128.125 119.531 126.172 120.508 124.414 120.508C120.215 120.508 117.09 117.285 117.09 113.281C117.09 111.133 117.871 109.277 119.434 107.812L134.375 92.9688C132.324 92.5781 129.785 92.3828 127.148 92.3828C104.102 92.3828 85.8398 110.645 85.8398 133.691C85.8398 156.738 104.102 175.098 127.148 175.098C150.098 175.098 168.457 156.641 168.457 133.691C168.457 129.395 171.973 125.977 176.27 125.977C180.371 125.977 183.984 129.395 183.984 133.691C183.984 165.234 158.789 190.723 127.148 190.723C95.6055 190.723 70.3125 165.234 70.3125 133.301Z" fill="#000000" />
 </g>
</svg>
